<svg xmlns="http://www.w3.org/2000/svg" xmlns:xlink="http://www.w3.org/1999/xlink" width="500" zoomAndPan="magnify" viewBox="0 0 375 374.999991" height="500" preserveAspectRatio="xMidYMid meet" version="1.0"><defs><g/><clipPath id="6ad80be581"><path d="M 95.992188 88.167969 L 278.992188 88.167969 L 278.992188 154.167969 L 95.992188 154.167969 Z M 95.992188 88.167969 " clip-rule="nonzero"/></clipPath><clipPath id="232ac963f4"><path d="M 95.992188 211.875 L 278.992188 211.875 L 278.992188 277.6875 L 95.992188 277.6875 Z M 95.992188 211.875 " clip-rule="nonzero"/></clipPath><clipPath id="d00715bb40"><path d="M 216.386719 178.105469 L 307.136719 178.105469 L 307.136719 196 L 216.386719 196 Z M 216.386719 178.105469 " clip-rule="nonzero"/></clipPath><clipPath id="427fead689"><path d="M 71.800781 178.59375 L 165.550781 178.59375 L 165.550781 195.84375 L 71.800781 195.84375 Z M 71.800781 178.59375 " clip-rule="nonzero"/></clipPath></defs><g clip-path="url(#6ad80be581)"><path fill="#151716" d="M 187.492188 88.1875 C 214.140625 88.1875 238.261719 99.019531 255.722656 116.53125 C 266.148438 126.984375 274.199219 139.820312 278.992188 154.15625 L 277.585938 154.15625 C 272.839844 140.191406 264.960938 127.683594 254.78125 117.476562 C 237.5625 100.207031 213.769531 89.523438 187.492188 89.523438 C 161.214844 89.523438 137.421875 100.207031 120.203125 117.476562 C 110.027344 127.683594 102.144531 140.191406 97.398438 154.15625 L 95.992188 154.15625 C 100.789062 139.824219 108.839844 126.988281 119.261719 116.53125 C 136.722656 99.019531 160.847656 88.1875 187.492188 88.1875 Z M 187.492188 88.1875 " fill-opacity="1" fill-rule="evenodd"/></g><g clip-path="url(#232ac963f4)"><path fill="#151716" d="M 187.492188 277.667969 C 214.140625 277.667969 238.261719 266.835938 255.722656 249.324219 C 266.148438 238.871094 274.199219 226.035156 278.992188 211.699219 L 277.585938 211.699219 C 272.839844 225.664062 264.960938 238.171875 254.78125 248.378906 C 237.5625 265.648438 213.769531 276.332031 187.492188 276.332031 C 161.214844 276.332031 137.421875 265.648438 120.203125 248.378906 C 110.027344 238.171875 102.144531 225.664062 97.398438 211.699219 L 95.992188 211.699219 C 100.789062 226.03125 108.839844 238.867188 119.261719 249.324219 C 136.722656 266.835938 160.847656 277.667969 187.492188 277.667969 Z M 187.492188 277.667969 " fill-opacity="1" fill-rule="evenodd"/></g><g clip-path="url(#d00715bb40)"><path fill="#151716" d="M 212.828125 186.371094 C 214.285156 184.542969 217.207031 182.113281 220.5625 180.527344 C 223.917969 178.9375 227.722656 178.207031 231.992188 178.246094 C 236.261719 178.285156 240.996094 179.097656 246.777344 180.886719 C 252.554688 182.675781 259.375 185.4375 265.472656 187.746094 C 271.570312 190.054688 276.953125 191.925781 282.085938 192.578125 C 287.21875 193.230469 292.113281 192.65625 295.828125 191.171875 C 299.53125 189.675781 302.054688 187.265625 303.542969 185.46875 C 305.035156 183.667969 305.488281 182.492188 305.996094 181.5 C 306.492188 180.503906 307.039062 179.691406 307.265625 179.753906 C 307.496094 179.8125 307.417969 180.746094 307.019531 182.050781 C 306.621094 183.359375 305.90625 185.046875 304.03125 187.144531 C 302.152344 189.242188 299.09375 191.765625 295.96875 193.421875 C 292.839844 195.089844 289.621094 195.902344 285.214844 195.941406 C 280.796875 195.980469 275.183594 195.25 269.523438 193.710938 C 263.863281 192.164062 258.164062 189.816406 252.503906 187.386719 C 246.84375 184.953125 241.226562 182.433594 235.792969 181.441406 C 230.351562 180.445312 225.097656 180.976562 221.097656 182.613281 C 217.097656 184.25 214.355469 187.011719 212.9375 188.53125 C 211.527344 190.054688 211.445312 190.335938 211.40625 189.875 C 211.367188 189.414062 211.367188 188.199219 212.828125 186.371094 Z M 212.828125 186.371094 " fill-opacity="1" fill-rule="evenodd"/></g><g clip-path="url(#427fead689)"><path fill="#151716" d="M 73.195312 186.515625 C 74.621094 184.765625 77.472656 182.4375 80.75 180.914062 C 84.027344 179.394531 87.742188 178.691406 91.910156 178.730469 C 96.082031 178.769531 100.707031 179.546875 106.351562 181.261719 C 111.992188 182.976562 118.65625 185.621094 124.609375 187.835938 C 130.5625 190.050781 135.820312 191.839844 140.832031 192.464844 C 145.84375 193.089844 150.625 192.542969 154.253906 191.117188 C 157.871094 189.683594 160.332031 187.375 161.789062 185.652344 C 163.242188 183.929688 163.6875 182.800781 164.183594 181.847656 C 164.667969 180.894531 165.199219 180.117188 165.421875 180.175781 C 165.648438 180.230469 165.570312 181.128906 165.179688 182.378906 C 164.792969 183.628906 164.09375 185.246094 162.261719 187.257812 C 160.429688 189.269531 157.441406 191.6875 154.386719 193.273438 C 151.335938 194.871094 148.191406 195.652344 143.886719 195.691406 C 139.570312 195.730469 134.09375 195.027344 128.566406 193.554688 C 123.039062 192.070312 117.472656 189.820312 111.945312 187.488281 C 106.417969 185.160156 100.929688 182.746094 95.625 181.792969 C 90.3125 180.839844 85.179688 181.347656 81.273438 182.917969 C 77.367188 184.488281 74.691406 187.132812 73.304688 188.585938 C 71.925781 190.050781 71.847656 190.320312 71.808594 189.875 C 71.769531 189.433594 71.769531 188.269531 73.195312 186.515625 Z M 73.195312 186.515625 " fill-opacity="1" fill-rule="evenodd"/></g><g fill="#151716" fill-opacity="1"><g transform="translate(163.638158, 204.985064)"><g><path d="M 28.488281 -18.167969 C 28.402344 -18.167969 26.105469 -16.582031 20.726562 -15.082031 C 21.078125 -22.753906 17.289062 -30.253906 13.582031 -37.574219 C 10.585938 -43.484375 7.761719 -49.128906 7.761719 -54.066406 C 7.761719 -58.210938 9.4375 -62.09375 12.347656 -64.472656 C 14.375 -66.0625 16.582031 -66.765625 18.523438 -66.414062 C 21.960938 -65.710938 24.609375 -64.03125 26.195312 -61.386719 C 28.222656 -58.125 28.578125 -53.539062 27.164062 -48.773438 C 27.078125 -48.421875 27.253906 -48.070312 27.605469 -47.980469 C 27.960938 -47.894531 28.3125 -48.070312 28.402344 -48.421875 C 29.898438 -53.449219 29.546875 -58.476562 27.34375 -62.09375 C 25.488281 -65.003906 22.578125 -66.945312 18.785156 -67.648438 C 17.816406 -67.824219 16.847656 -67.914062 15.875 -67.914062 C 12.523438 -67.914062 9.527344 -66.855469 7.054688 -64.652344 C 3.527344 -61.5625 1.765625 -56.449219 2.117188 -50.804688 C 2.46875 -45.6875 5.292969 -40.570312 8.289062 -35.105469 C 11.730469 -28.664062 15.347656 -22.050781 14.816406 -15.433594 L 14.640625 -13.671875 L 11.730469 -13.140625 C 3.96875 -11.996094 0.265625 -7.851562 0 -4.144531 C -0.175781 -1.851562 1.148438 0.175781 3.351562 0.792969 L 3.441406 0.792969 C 4.675781 1.148438 6.261719 1.410156 7.851562 1.410156 C 9.964844 1.410156 12.171875 0.96875 14.199219 -0.351562 C 17.550781 -2.644531 19.757812 -6.96875 20.550781 -13.230469 C 20.550781 -13.40625 20.550781 -13.496094 20.640625 -13.671875 C 26.546875 -15.347656 29.019531 -17.023438 29.195312 -17.109375 C 29.457031 -17.289062 29.546875 -17.726562 29.371094 -17.992188 C 29.105469 -18.34375 28.753906 -18.34375 28.488281 -18.167969 Z M 8.996094 -1.410156 C 7.410156 -0.265625 5.554688 0 3.792969 -0.441406 C 2.117188 -0.96875 1.234375 -2.292969 1.324219 -4.058594 C 1.5 -7.230469 4.851562 -10.847656 11.90625 -11.90625 L 14.464844 -12.261719 C 13.582031 -7.054688 11.730469 -3.261719 8.996094 -1.410156 Z M 8.996094 -1.410156 "/></g></g></g><g fill="#151716" fill-opacity="1"><g transform="translate(191.331485, 204.985064)"><g><path d="M 21.519531 -17.109375 C 21.785156 -17.375 21.519531 -17.816406 21.34375 -18.082031 C 21.078125 -18.34375 20.640625 -18.34375 20.375 -18.167969 C 13.054688 -11.289062 6.792969 -10.230469 4.9375 -10.144531 C 5.203125 -11.554688 5.46875 -13.054688 5.820312 -14.464844 C 6.261719 -17.023438 6.792969 -19.316406 7.230469 -21.433594 L 7.230469 -21.519531 C 10.761719 -24.078125 14.90625 -28.488281 18.167969 -33.339844 C 20.285156 -36.339844 23.550781 -42.160156 23.371094 -46.835938 L 23.109375 -47.363281 C 23.109375 -49.128906 22.316406 -50.449219 21.078125 -51.332031 C 18.082031 -53.714844 13.847656 -52.566406 10.671875 -48.421875 C 5.910156 -42.246094 1.851562 -29.898438 -0.351562 -14.554688 C -4.5 11.203125 -2.46875 19.582031 1.585938 24.167969 C 3.351562 26.105469 5.554688 27.164062 7.671875 27.164062 C 8.378906 27.164062 8.996094 27.078125 9.703125 26.902344 C 12.613281 25.929688 15.699219 22.316406 15.347656 15.082031 C 14.90625 4.320312 11.730469 -3.792969 6.175781 -8.90625 C 8.644531 -9.261719 14.464844 -10.761719 21.519531 -17.109375 Z M 14.023438 14.992188 C 14.289062 18.082031 13.757812 20.375 12.699219 22.136719 C 11.554688 23.8125 10.144531 24.429688 8.554688 23.726562 C 6.527344 22.578125 4.675781 18.964844 3.878906 13.757812 C 3.175781 7.9375 3.351562 0.527344 4.761719 -8.46875 C 10.40625 -3.617188 13.582031 4.320312 14.023438 14.992188 Z M 20.109375 -49.304688 C 20.726562 -49.214844 21.785156 -48.15625 21.875 -47.453125 C 21.875 -47.273438 21.875 -47.097656 22.050781 -46.921875 C 22.316406 -40.394531 14.554688 -29.105469 7.671875 -23.550781 C 12.878906 -47.1875 17.992188 -49.480469 20.019531 -49.304688 Z M 20.109375 -49.304688 "/></g></g></g></svg>