<svg xmlns="http://www.w3.org/2000/svg" xmlns:xlink="http://www.w3.org/1999/xlink" width="500" zoomAndPan="magnify" viewBox="0 0 375 374.999991" height="500" preserveAspectRatio="xMidYMid meet" version="1.0"><defs><clipPath id="d0e4f85214"><path d="M 10.015625 27 L 360 27 L 360 322 L 10.015625 322 Z M 10.015625 27 " clip-rule="nonzero"/></clipPath></defs><g clip-path="url(#d0e4f85214)"><path fill="#ffffff" d="M 317.0625 192.628906 L 302.132812 207.546875 C 299.410156 210.265625 294.992188 210.265625 292.269531 207.546875 C 289.550781 204.828125 289.550781 200.410156 292.269531 197.6875 L 319.960938 170.011719 C 322.6875 167.289062 327.097656 167.289062 329.824219 170.011719 L 357.515625 197.6875 C 360.234375 200.410156 360.234375 204.828125 357.515625 207.546875 C 354.792969 210.265625 350.371094 210.265625 347.652344 207.546875 L 331.285156 191.1875 C 323.183594 264.664062 260.796875 321.902344 185.140625 321.902344 C 119.273438 321.902344 63.460938 278.515625 44.777344 218.800781 C 44.140625 216.691406 44.539062 214.402344 45.855469 212.628906 C 47.171875 210.859375 49.25 209.816406 51.457031 209.816406 L 51.460938 209.789062 C 54.527344 209.789062 57.234375 211.792969 58.132812 214.730469 C 75.058594 268.730469 125.550781 307.960938 185.140625 307.960938 C 252.597656 307.960938 308.398438 257.691406 317.0625 192.625 Z M 104.175781 124.242188 L 128.566406 95.246094 C 131.21875 92.09375 135.125 90.277344 139.242188 90.277344 L 255.472656 90.277344 C 263.175781 90.277344 269.417969 96.515625 269.417969 104.214844 L 269.417969 220.390625 C 269.417969 224.34375 267.734375 228.121094 264.789062 230.761719 L 237.371094 255.355469 C 237.371094 255.355469 234.871094 257.546875 233.371094 258.214844 C 230.074219 259.691406 227.3125 259.613281 227.277344 259.613281 L 114.808594 259.613281 C 107.109375 259.613281 100.863281 253.371094 100.863281 245.675781 L 100.882812 132.585938 C 101.03125 129.40625 102.246094 126.511719 104.175781 124.242188 Z M 139.40625 133.261719 L 114.808594 133.261719 L 114.808594 245.675781 L 227.277344 245.675781 L 227.277344 133.261719 L 202.683594 133.261719 L 202.683594 195.765625 C 202.683594 201.125 199.609375 206.007812 194.777344 208.328125 C 189.945312 210.652344 184.207031 209.996094 180.023438 206.652344 L 171.046875 199.472656 L 162.070312 206.652344 C 157.882812 209.996094 152.144531 210.652344 147.316406 208.328125 C 142.480469 206.007812 139.40625 201.125 139.40625 195.765625 Z M 255.472656 114.226562 L 241.140625 128.988281 L 241.226562 233.160156 L 255.472656 220.390625 Z M 188.738281 133.261719 L 153.355469 133.261719 L 153.355469 195.765625 L 171.046875 181.621094 L 188.738281 195.765625 Z M 38.996094 158.699219 C 47.101562 85.214844 109.488281 27.980469 185.140625 27.980469 C 251.007812 27.980469 306.820312 71.367188 325.503906 131.078125 C 326.140625 133.1875 325.742188 135.480469 324.425781 137.253906 C 323.109375 139.023438 321.035156 140.066406 318.828125 140.066406 L 318.824219 140.089844 C 315.753906 140.089844 313.046875 138.089844 312.148438 135.152344 C 295.222656 81.152344 244.730469 41.921875 185.140625 41.921875 C 117.683594 41.921875 61.882812 92.195312 53.222656 157.261719 L 68.148438 142.339844 C 70.871094 139.617188 75.289062 139.617188 78.011719 142.339844 C 80.730469 145.0625 80.730469 149.476562 78.011719 152.199219 L 50.320312 179.875 C 47.597656 182.59375 43.183594 182.59375 40.460938 179.875 L 12.769531 152.199219 C 10.046875 149.476562 10.046875 145.0625 12.769531 142.339844 C 15.492188 139.617188 19.910156 139.617188 22.632812 142.339844 Z M 139.242188 104.214844 L 126.539062 119.316406 L 231.203125 119.203125 L 245.753906 104.214844 Z M 139.242188 104.214844 " fill-opacity="1" fill-rule="evenodd"/></g></svg>