<svg xmlns="http://www.w3.org/2000/svg" xmlns:xlink="http://www.w3.org/1999/xlink" width="500" zoomAndPan="magnify" viewBox="0 0 375 374.999991" height="500" preserveAspectRatio="xMidYMid meet" version="1.0"><defs><clipPath id="5c03ab754e"><path d="M 112.5 124.03125 L 262.5 124.03125 L 262.5 250.78125 L 112.5 250.78125 Z M 112.5 124.03125 " clip-rule="nonzero"/></clipPath></defs><g clip-path="url(#5c03ab754e)"><path fill="#ffffff" d="M 243.996094 194.972656 L 237.605469 201.355469 C 236.4375 202.519531 234.546875 202.519531 233.378906 201.355469 C 232.214844 200.195312 232.214844 198.304688 233.378906 197.140625 L 245.238281 185.296875 C 246.40625 184.132812 248.296875 184.132812 249.460938 185.296875 L 261.320312 197.140625 C 262.484375 198.304688 262.484375 200.195312 261.320312 201.355469 C 260.15625 202.519531 258.261719 202.519531 257.097656 201.355469 L 250.089844 194.359375 C 246.617188 225.792969 219.902344 250.28125 187.5 250.28125 C 159.292969 250.28125 135.390625 231.71875 127.386719 206.171875 C 127.113281 205.269531 127.285156 204.289062 127.847656 203.53125 C 128.414062 202.773438 129.300781 202.328125 130.246094 202.328125 L 130.25 202.316406 C 131.5625 202.316406 132.722656 203.175781 133.105469 204.429688 C 140.355469 227.535156 161.980469 244.320312 187.5 244.320312 C 216.390625 244.316406 240.285156 222.8125 243.996094 194.972656 Z M 152.824219 165.714844 L 163.269531 153.308594 C 164.40625 151.960938 166.078125 151.183594 167.84375 151.183594 L 217.621094 151.183594 C 220.917969 151.183594 223.59375 153.855469 223.59375 157.148438 L 223.59375 206.851562 C 223.59375 208.542969 222.871094 210.160156 221.609375 211.289062 L 209.867188 221.8125 C 209.867188 221.8125 208.796875 222.75 208.15625 223.035156 C 206.742188 223.667969 205.5625 223.632812 205.546875 223.632812 L 157.378906 223.632812 C 154.082031 223.632812 151.40625 220.964844 151.40625 217.667969 L 151.414062 169.285156 C 151.480469 167.925781 152 166.6875 152.824219 165.714844 Z M 167.914062 169.574219 L 157.378906 169.574219 L 157.378906 217.667969 L 205.546875 217.667969 L 205.546875 169.574219 L 195.011719 169.574219 L 195.011719 196.316406 C 195.011719 198.609375 193.695312 200.699219 191.625 201.691406 C 189.558594 202.683594 187.101562 202.40625 185.308594 200.972656 L 181.464844 197.902344 L 177.617188 200.972656 C 175.828125 202.40625 173.367188 202.683594 171.300781 201.691406 C 169.230469 200.699219 167.914062 198.609375 167.914062 196.316406 Z M 217.621094 161.429688 L 211.484375 167.746094 L 211.519531 212.316406 L 217.621094 206.851562 Z M 189.039062 169.574219 L 173.886719 169.574219 L 173.886719 196.316406 L 181.464844 190.265625 L 189.039062 196.316406 Z M 124.910156 180.457031 C 128.382812 149.019531 155.101562 124.53125 187.5 124.53125 C 215.707031 124.53125 239.609375 143.09375 247.613281 168.640625 C 247.886719 169.542969 247.714844 170.523438 247.152344 171.28125 C 246.585938 172.039062 245.699219 172.484375 244.753906 172.484375 L 244.75 172.496094 C 243.4375 172.496094 242.277344 171.640625 241.894531 170.382812 C 234.644531 147.28125 213.019531 130.496094 187.5 130.496094 C 158.609375 130.496094 134.710938 152.003906 131.003906 179.84375 L 137.394531 173.457031 C 138.5625 172.292969 140.453125 172.292969 141.621094 173.457031 C 142.785156 174.625 142.785156 176.511719 141.621094 177.675781 L 129.761719 189.515625 C 128.59375 190.683594 126.703125 190.683594 125.539062 189.515625 L 113.679688 177.675781 C 112.515625 176.511719 112.515625 174.625 113.679688 173.457031 C 114.84375 172.292969 116.738281 172.292969 117.902344 173.457031 Z M 167.84375 157.148438 L 162.402344 163.609375 L 207.226562 163.558594 L 213.457031 157.148438 Z M 167.84375 157.148438 " fill-opacity="1" fill-rule="evenodd"/></g><path fill="#ffffff" d="M 153.957031 165.808594 C 177.648438 141.472656 216.550781 140.511719 241.523438 163.40625 L 229.835938 163.40625 C 228.714844 163.40625 227.914062 164.367188 227.914062 165.328125 C 227.914062 166.289062 228.875 167.246094 229.835938 167.246094 L 246.324219 167.246094 C 247.445312 167.246094 248.246094 166.289062 248.246094 165.328125 L 248.246094 149 C 248.246094 147.878906 247.285156 147.078125 246.324219 147.078125 C 245.363281 147.078125 244.082031 147.878906 244.082031 149 L 244.082031 160.363281 C 217.507812 136.03125 176.367188 137.152344 151.074219 162.925781 C 128.503906 185.335938 124.5 220.394531 141.308594 247.289062 C 141.628906 247.929688 142.269531 248.25 143.070312 248.25 C 144.191406 248.25 144.992188 247.289062 144.992188 246.171875 C 144.992188 245.851562 144.832031 245.371094 144.671875 245.050781 C 128.980469 219.757812 132.664062 186.9375 153.957031 165.808594 Z M 153.957031 165.808594 " fill-opacity="1" fill-rule="nonzero"/><path fill="#ffffff" d="M 257.53125 174.292969 C 256.890625 173.332031 255.769531 173.011719 254.808594 173.652344 C 253.847656 174.292969 253.527344 175.414062 254.167969 176.371094 C 270.019531 201.828125 266.335938 234.964844 245.203125 256.253906 C 221.511719 280.589844 182.609375 281.550781 157.636719 258.496094 L 169.484375 258.496094 C 170.605469 258.496094 171.40625 257.535156 171.40625 256.574219 C 171.40625 255.613281 170.445312 254.65625 169.484375 254.65625 L 153.15625 254.65625 C 152.035156 254.65625 151.234375 255.613281 151.234375 256.734375 L 151.234375 273.0625 C 151.234375 274.183594 152.195312 274.984375 153.15625 274.984375 C 154.117188 274.984375 155.078125 274.023438 155.078125 273.0625 L 155.078125 261.699219 C 181.652344 286.03125 222.792969 284.910156 248.085938 259.136719 C 270.65625 236.566406 274.5 201.347656 257.53125 174.292969 Z M 257.53125 174.292969 " fill-opacity="1" fill-rule="nonzero"/><path fill="#ffffff" d="M 234.800781 177.332031 C 232.878906 175.414062 230.796875 173.492188 228.554688 171.890625 C 227.59375 171.089844 226.472656 171.25 225.675781 172.050781 C 224.875 173.011719 225.035156 174.292969 226.152344 175.09375 C 228.234375 176.53125 230.15625 178.292969 231.917969 180.054688 C 232.71875 180.855469 234 180.855469 234.800781 180.054688 C 235.597656 179.253906 235.597656 178.132812 234.800781 177.332031 Z M 234.800781 177.332031 " fill-opacity="1" fill-rule="nonzero"/><path fill="#ffffff" d="M 229.835938 244.089844 C 228.074219 245.53125 226.3125 247.128906 224.074219 248.570312 C 223.113281 249.210938 222.953125 250.492188 223.433594 251.292969 C 223.753906 251.773438 224.394531 252.253906 225.035156 252.253906 C 225.355469 252.253906 225.835938 252.09375 226.152344 251.933594 C 228.554688 250.332031 230.636719 248.730469 232.71875 246.808594 C 233.519531 246.011719 233.519531 244.730469 232.71875 243.929688 C 231.277344 242.648438 229.835938 244.089844 229.835938 244.089844 Z M 229.835938 244.089844 " fill-opacity="1" fill-rule="nonzero"/><path fill="#ffffff" d="M 155.078125 225.199219 C 156.355469 225.039062 156.835938 223.757812 156.515625 222.796875 C 155.875 220.394531 155.394531 217.835938 155.238281 215.273438 C 155.078125 214.152344 154.117188 213.351562 153.15625 213.511719 C 152.035156 213.671875 151.234375 214.632812 151.394531 215.753906 C 151.714844 218.476562 152.195312 221.195312 152.835938 223.917969 C 152.835938 224.71875 153.796875 225.359375 155.078125 225.199219 Z M 155.078125 225.199219 " fill-opacity="1" fill-rule="nonzero"/><path fill="#ffffff" d="M 237.519531 238.484375 C 238.640625 239.125 239.921875 238.484375 240.242188 237.84375 C 241.84375 235.445312 243.125 233.042969 244.242188 230.480469 C 244.722656 229.519531 244.082031 228.242188 243.125 227.921875 C 242.164062 227.601562 241.042969 227.921875 240.5625 228.878906 C 239.601562 231.28125 238.320312 233.523438 236.878906 235.605469 C 236.398438 236.566406 236.238281 237.683594 237.519531 238.484375 Z M 237.519531 238.484375 " fill-opacity="1" fill-rule="nonzero"/><path fill="#ffffff" d="M 214.46875 253.214844 C 212.066406 254.015625 209.503906 254.65625 207.105469 255.136719 C 205.984375 255.292969 205.34375 256.414062 205.503906 257.535156 C 205.824219 259.457031 207.746094 259.136719 207.746094 259.136719 C 210.464844 258.65625 213.1875 258.015625 215.75 257.054688 C 216.871094 256.734375 217.347656 255.613281 217.03125 254.496094 C 216.550781 253.535156 215.429688 252.894531 214.46875 253.214844 Z M 214.46875 253.214844 " fill-opacity="1" fill-rule="nonzero"/><path fill="#ffffff" d="M 243.445312 196.863281 C 243.761719 196.863281 243.921875 196.863281 244.082031 196.703125 C 245.042969 196.382812 245.683594 195.101562 245.203125 194.140625 C 244.242188 191.582031 242.964844 189.019531 241.683594 186.617188 C 241.203125 185.65625 239.921875 185.335938 238.960938 185.816406 C 238 186.296875 237.679688 187.578125 238.160156 188.539062 C 239.441406 190.78125 240.5625 193.023438 241.363281 195.421875 C 241.84375 196.382812 242.644531 196.863281 243.445312 196.863281 Z M 243.445312 196.863281 " fill-opacity="1" fill-rule="nonzero"/><path fill="#ffffff" d="M 247.605469 219.4375 C 248.085938 216.714844 248.246094 213.992188 248.246094 211.109375 C 248.246094 209.191406 248.085938 207.429688 247.925781 205.507812 C 247.765625 204.386719 246.804688 203.585938 245.683594 203.746094 C 244.5625 203.90625 243.761719 204.867188 243.921875 205.988281 C 244.082031 207.75 244.242188 209.351562 244.242188 211.109375 C 244.242188 213.671875 244.082031 216.234375 243.605469 218.796875 C 243.445312 219.914062 244.082031 220.875 245.203125 221.035156 C 246.644531 221.195312 247.445312 220.394531 247.605469 219.4375 Z M 247.605469 219.4375 " fill-opacity="1" fill-rule="nonzero"/><path fill="#ffffff" d="M 172.367188 246.488281 C 171.40625 245.851562 170.285156 246.011719 169.484375 246.808594 C 168.84375 247.769531 169.003906 248.890625 169.804688 249.691406 C 172.046875 251.453125 174.285156 252.894531 176.847656 254.175781 C 177.167969 254.335938 178.609375 254.976562 179.570312 253.375 C 180.691406 251.613281 178.769531 250.652344 178.769531 250.652344 C 176.527344 249.371094 174.445312 248.089844 172.367188 246.488281 Z M 172.367188 246.488281 " fill-opacity="1" fill-rule="nonzero"/><path fill="#ffffff" d="M 174.445312 174.132812 C 176.527344 172.691406 178.769531 171.410156 181.011719 170.289062 C 182.128906 169.808594 182.769531 168.847656 182.289062 167.726562 C 181.332031 165.808594 179.890625 166.449219 179.410156 166.609375 C 176.847656 167.726562 174.445312 169.167969 172.207031 170.769531 C 171.246094 171.410156 171.085938 172.691406 171.726562 173.492188 C 172.367188 174.773438 173.804688 174.613281 174.445312 174.132812 Z M 174.445312 174.132812 " fill-opacity="1" fill-rule="nonzero"/><path fill="#ffffff" d="M 161.800781 187.417969 C 163.242188 185.175781 164.679688 183.257812 166.441406 181.335938 C 167.242188 180.535156 167.242188 179.253906 166.441406 178.453125 C 165.640625 177.652344 164.359375 177.652344 163.5625 178.453125 C 163.5625 178.453125 163.402344 178.613281 163.402344 178.613281 C 161.480469 180.695312 159.878906 182.9375 158.4375 185.335938 C 157.796875 186.296875 158.117188 187.578125 159.078125 188.058594 C 160.039062 188.699219 161.320312 188.058594 161.800781 187.417969 Z M 161.800781 187.417969 " fill-opacity="1" fill-rule="nonzero"/><path fill="#ffffff" d="M 155.875 194.460938 C 154.757812 194.140625 153.636719 194.621094 153.316406 195.742188 C 152.515625 198.464844 151.875 201.1875 151.554688 203.90625 C 151.394531 205.027344 152.035156 205.988281 153.15625 206.148438 C 153.15625 206.148438 155.078125 206.46875 155.394531 204.386719 C 155.714844 201.828125 156.355469 199.425781 157.15625 196.863281 C 157.476562 195.902344 156.996094 194.941406 155.875 194.460938 Z M 155.875 194.460938 " fill-opacity="1" fill-rule="nonzero"/><path fill="#ffffff" d="M 191.253906 167.085938 C 193.816406 166.609375 196.378906 166.289062 198.941406 166.289062 C 200.058594 166.289062 200.859375 165.328125 200.859375 164.367188 C 200.859375 163.40625 199.898438 162.445312 198.941406 162.445312 C 196.21875 162.445312 193.335938 162.765625 190.617188 163.246094 C 189.496094 163.40625 188.855469 164.527344 189.015625 165.648438 C 189.335938 167.40625 191.253906 167.085938 191.253906 167.085938 Z M 191.253906 167.085938 " fill-opacity="1" fill-rule="nonzero"/><path fill="#ffffff" d="M 161.640625 241.527344 C 161.960938 242.007812 163.082031 242.648438 164.519531 241.847656 C 166.121094 240.726562 164.839844 238.964844 164.839844 238.964844 C 163.242188 236.886719 161.800781 234.804688 160.679688 232.5625 C 160.199219 231.601562 158.917969 231.28125 157.957031 231.761719 C 156.996094 232.242188 156.675781 233.523438 157.15625 234.484375 C 158.277344 236.886719 159.878906 239.285156 161.640625 241.527344 Z M 161.640625 241.527344 " fill-opacity="1" fill-rule="nonzero"/><path fill="#ffffff" d="M 188.855469 254.496094 C 187.734375 254.175781 186.773438 254.816406 186.453125 255.933594 C 186.132812 257.054688 186.773438 258.015625 187.894531 258.335938 C 190.617188 258.976562 193.335938 259.457031 196.058594 259.617188 C 196.058594 259.617188 197.980469 259.777344 198.140625 257.535156 C 198.300781 256.574219 197.339844 255.773438 196.378906 255.613281 C 193.816406 255.453125 191.253906 255.136719 188.855469 254.496094 Z M 188.855469 254.496094 " fill-opacity="1" fill-rule="nonzero"/><path fill="#ffffff" d="M 216.871094 169.808594 C 217.1875 169.96875 217.347656 169.96875 217.667969 169.96875 C 218.789062 169.96875 219.589844 169.007812 219.589844 167.886719 C 219.589844 167.085938 219.109375 166.449219 218.308594 166.128906 C 215.75 165.007812 213.027344 164.207031 210.304688 163.566406 C 209.183594 163.246094 208.226562 164.046875 207.90625 165.007812 C 207.585938 166.128906 208.382812 167.085938 209.34375 167.40625 C 211.90625 168.046875 214.46875 168.847656 216.871094 169.808594 Z M 216.871094 169.808594 " fill-opacity="1" fill-rule="nonzero"/><path fill="#ffffff" d="M 192.375 199.90625 L 192.375 204.066406 C 192.375 205.1875 193.976562 206.46875 194.9375 207.109375 L 197.980469 208.230469 L 197.980469 195.742188 L 196.859375 195.742188 C 194.617188 195.582031 192.535156 197.503906 192.375 199.90625 Z M 192.375 199.90625 " fill-opacity="1" fill-rule="nonzero"/><path fill="#ffffff" d="M 201.980469 226.160156 L 202.300781 226.160156 C 204.703125 226.320312 206.785156 224.398438 206.945312 221.996094 L 206.945312 217.835938 C 206.945312 216.875 205.984375 215.753906 204.222656 214.792969 L 201.980469 213.992188 Z M 201.980469 226.160156 " fill-opacity="1" fill-rule="nonzero"/><path fill="#ffffff" d="M 199.578125 175.890625 C 180.050781 175.890625 164.359375 191.582031 164.359375 211.109375 C 164.359375 230.640625 180.050781 246.328125 199.578125 246.328125 C 219.109375 246.328125 234.800781 230.640625 234.800781 211.109375 C 234.800781 191.582031 219.109375 175.890625 199.578125 175.890625 Z M 210.945312 201.828125 C 210.945312 202.945312 209.984375 203.746094 209.023438 203.746094 C 208.066406 203.746094 207.105469 202.785156 207.105469 201.828125 L 207.105469 199.90625 C 206.945312 197.503906 204.863281 195.582031 202.460938 195.742188 L 202.140625 195.742188 L 202.140625 209.671875 L 206.144531 211.109375 C 209.34375 213.03125 210.945312 215.273438 210.945312 217.675781 L 210.945312 221.835938 C 210.785156 226.480469 206.945312 230.160156 202.300781 230 L 201.980469 230 L 201.980469 231.121094 C 201.980469 232.242188 201.019531 233.042969 200.058594 233.042969 C 199.101562 233.042969 197.980469 232.242188 197.980469 231.121094 L 197.980469 230.160156 L 196.859375 230.160156 C 192.214844 230.160156 188.375 226.640625 188.375 221.996094 L 188.375 219.914062 C 188.375 218.796875 189.335938 217.996094 190.296875 217.996094 C 191.253906 217.996094 192.214844 218.957031 192.214844 219.914062 L 192.214844 221.835938 C 192.375 224.238281 194.457031 226.160156 196.859375 226 L 197.980469 226 L 197.980469 212.390625 C 197.980469 212.390625 193.175781 210.632812 193.015625 210.632812 C 189.816406 208.710938 188.214844 206.628906 188.214844 204.066406 L 188.214844 199.746094 C 188.375 195.101562 192.214844 191.421875 196.859375 191.582031 L 197.980469 191.582031 L 197.980469 191.101562 C 197.980469 189.980469 198.941406 189.179688 199.898438 189.179688 C 200.859375 189.179688 201.820312 190.140625 201.820312 191.101562 L 201.820312 191.742188 L 202.140625 191.742188 C 206.785156 191.582031 210.625 195.261719 210.785156 199.90625 Z M 210.945312 201.828125 " fill-opacity="1" fill-rule="nonzero"/></svg>