<svg xmlns="http://www.w3.org/2000/svg" xmlns:xlink="http://www.w3.org/1999/xlink" width="500" zoomAndPan="magnify" viewBox="0 0 375 374.999991" height="500" preserveAspectRatio="xMidYMid meet" version="1.0"><defs><clipPath id="64ad31e922"><path d="M 112.5 124.03125 L 262.5 124.03125 L 262.5 250.78125 L 112.5 250.78125 Z M 112.5 124.03125 " clip-rule="nonzero"/></clipPath></defs><g clip-path="url(#64ad31e922)"><path fill="#ffffff" d="M 243.996094 194.972656 L 237.605469 201.355469 C 236.4375 202.519531 234.546875 202.519531 233.378906 201.355469 C 232.214844 200.195312 232.214844 198.304688 233.378906 197.140625 L 245.238281 185.296875 C 246.40625 184.132812 248.296875 184.132812 249.460938 185.296875 L 261.320312 197.140625 C 262.484375 198.304688 262.484375 200.195312 261.320312 201.355469 C 260.15625 202.519531 258.261719 202.519531 257.097656 201.355469 L 250.089844 194.359375 C 246.617188 225.792969 219.902344 250.28125 187.5 250.28125 C 159.292969 250.28125 135.390625 231.71875 127.386719 206.171875 C 127.113281 205.269531 127.285156 204.289062 127.847656 203.53125 C 128.414062 202.773438 129.300781 202.328125 130.246094 202.328125 L 130.25 202.316406 C 131.5625 202.316406 132.722656 203.175781 133.105469 204.429688 C 140.355469 227.535156 161.980469 244.320312 187.5 244.320312 C 216.390625 244.316406 240.285156 222.8125 243.996094 194.972656 Z M 152.824219 165.714844 L 163.269531 153.308594 C 164.40625 151.960938 166.078125 151.183594 167.84375 151.183594 L 217.621094 151.183594 C 220.917969 151.183594 223.59375 153.855469 223.59375 157.148438 L 223.59375 206.851562 C 223.59375 208.542969 222.871094 210.160156 221.609375 211.289062 L 209.867188 221.8125 C 209.867188 221.8125 208.796875 222.75 208.15625 223.035156 C 206.742188 223.667969 205.5625 223.632812 205.546875 223.632812 L 157.378906 223.632812 C 154.082031 223.632812 151.40625 220.964844 151.40625 217.667969 L 151.414062 169.285156 C 151.480469 167.925781 152 166.6875 152.824219 165.714844 Z M 167.914062 169.574219 L 157.378906 169.574219 L 157.378906 217.667969 L 205.546875 217.667969 L 205.546875 169.574219 L 195.011719 169.574219 L 195.011719 196.316406 C 195.011719 198.609375 193.695312 200.699219 191.625 201.691406 C 189.558594 202.683594 187.101562 202.40625 185.308594 200.972656 L 181.464844 197.902344 L 177.617188 200.972656 C 175.828125 202.40625 173.367188 202.683594 171.300781 201.691406 C 169.230469 200.699219 167.914062 198.609375 167.914062 196.316406 Z M 217.621094 161.429688 L 211.484375 167.746094 L 211.519531 212.316406 L 217.621094 206.851562 Z M 189.039062 169.574219 L 173.886719 169.574219 L 173.886719 196.316406 L 181.464844 190.265625 L 189.039062 196.316406 Z M 124.910156 180.457031 C 128.382812 149.019531 155.101562 124.53125 187.5 124.53125 C 215.707031 124.53125 239.609375 143.09375 247.613281 168.640625 C 247.886719 169.542969 247.714844 170.523438 247.152344 171.28125 C 246.585938 172.039062 245.699219 172.484375 244.753906 172.484375 L 244.75 172.496094 C 243.4375 172.496094 242.277344 171.640625 241.894531 170.382812 C 234.644531 147.28125 213.019531 130.496094 187.5 130.496094 C 158.609375 130.496094 134.710938 152.003906 131.003906 179.84375 L 137.394531 173.457031 C 138.5625 172.292969 140.453125 172.292969 141.621094 173.457031 C 142.785156 174.625 142.785156 176.511719 141.621094 177.675781 L 129.761719 189.515625 C 128.59375 190.683594 126.703125 190.683594 125.539062 189.515625 L 113.679688 177.675781 C 112.515625 176.511719 112.515625 174.625 113.679688 173.457031 C 114.84375 172.292969 116.738281 172.292969 117.902344 173.457031 Z M 167.84375 157.148438 L 162.402344 163.609375 L 207.226562 163.558594 L 213.457031 157.148438 Z M 167.84375 157.148438 " fill-opacity="1" fill-rule="evenodd"/></g></svg>